<?xml version="1.0" encoding="utf-8"?>
<svg version="1.1" id="Layer_1" xmlns="http://www.w3.org/2000/svg" xmlns:xlink="http://www.w3.org/1999/xlink" x="0px" y="0px"
	 width="237px" height="150.902px" viewBox="0 0 237 150.902" enable-background="new 0 0 237 150.902" xml:space="preserve">
<g>
	<g>
		<defs>
			<rect id="SVGID_1_" x="4.439" y="2.222" width="228.122" height="145.25"/>
		</defs>
		<defs>
			<path id="SVGID_2_" d="M32.863,26.277c-5.614,0-11,1.434-15.696,4.082V12.374c0-5.627-4.698-10.151-10.541-10.151v86.73h10.541
				V31.353c4.697-2.648,10.082-4.193,15.696-4.193c17.071,0,30.934,13.683,30.934,30.455c0,16.772-13.863,30.344-30.934,30.344
				c-0.229,0-0.459,0.221-0.459,0.441c0,0.221,0.229,0.441,0.459,0.441c17.529,0,31.736-14.014,31.736-31.227
				C64.599,40.401,50.392,26.277,32.863,26.277L32.863,26.277z M140.903,43.822c-5.384-10.814-16.384-17.544-28.643-17.544
				c-17.529,0-31.736,14.013-31.736,31.337c0,17.213,14.207,31.337,31.736,31.337c0.344,0,0.459-0.22,0.459-0.441
				c0-0.221-0.115-0.441-0.459-0.441c-7.447,0-14.436-2.648-19.706-7.062c-2.177-1.876-3.437-4.524-3.437-7.503
				c0-5.628,4.698-10.152,10.541-10.152h24.748c0.229,0,0.344-0.111,0.344-0.441c0-0.221-0.114-0.331-0.344-0.331h-28.07
				c-3.437,0-6.76-1.324-9.51-3.2c-3.437-2.317-5.042-5.407-4.697-8.496c3.093-13.572,15.467-23.834,30.132-23.834
				c11.916,0,22.571,6.621,27.841,17.214c0.115,0.11,0.344,0.221,0.574,0.11C140.903,44.263,141.018,44.042,140.903,43.822
				L140.903,43.822z M222.364,29.808c-3.667-2.317-7.791-3.531-12.145-3.531c-7.333,0-14.092,3.531-18.217,9.379
				c-1.718-2.207-3.781-4.303-6.187-5.848c-3.667-2.317-7.791-3.531-12.145-3.531c-5.385,0-10.426,1.875-14.322,5.186
				c-1.833-3.089-5.271-5.186-9.166-5.186v62.675h10.541V36.208c-0.115-1.434-0.458-2.759-1.031-3.972
				c3.896-3.2,8.822-5.076,13.978-5.076c4.125,0,8.134,1.214,11.571,3.421c6.187,3.862,9.854,10.482,9.854,17.655v9.379
				c0,0.22,0.229,0.441,0.458,0.441c0.229,0,0.459-0.221,0.459-0.441v-9.379c0-4.193-1.261-8.276-3.552-11.807
				c4.01-5.738,10.655-9.269,17.759-9.269c4.124,0,8.134,1.214,11.571,3.421c6.187,3.862,9.853,10.482,9.853,17.655V88.4
				c0,0.221,0.115,0.441,0.458,0.441c0.229,0,0.458-0.221,0.458-0.441V48.236C232.561,40.732,228.665,33.891,222.364,29.808
				L222.364,29.808z"/>
		</defs>
		<clipPath id="SVGID_3_">
			<use xlink:href="#SVGID_1_"  overflow="visible"/>
		</clipPath>
		<clipPath id="SVGID_4_" clip-path="url(#SVGID_3_)">
			<use xlink:href="#SVGID_2_"  overflow="visible"/>
		</clipPath>
		<rect x="2.981" y="-1.422" clip-path="url(#SVGID_4_)" fill="#2E2E2C" width="233.223" height="94.018"/>
	</g>
	<g>
		<defs>
			<rect id="SVGID_5_" x="4.439" y="2.222" width="228.122" height="145.25"/>
		</defs>
		<defs>
			<path id="SVGID_6_" d="M4.439,137.77c0-2.811,0.972-5.09,2.916-6.839c1.943-1.748,4.354-2.623,7.232-2.623
				c3.321,0,5.911,1.262,7.77,3.788l-2.76,1.512c-0.538-0.714-1.252-1.3-2.144-1.76c-0.892-0.459-1.847-0.689-2.866-0.689
				c-1.916,0-3.505,0.622-4.77,1.867c-1.264,1.245-1.896,2.826-1.896,4.744c0,1.9,0.632,3.477,1.896,4.73
				c1.265,1.253,2.854,1.88,4.77,1.88c0.906,0,1.774-0.165,2.604-0.495c0.83-0.331,1.486-0.714,1.967-1.151v-2.824H13.37v-2.824
				h9.157v6.825c-2.104,2.23-4.75,3.345-7.94,3.345c-2.878,0-5.289-0.878-7.232-2.636C5.411,142.864,4.439,140.58,4.439,137.77
				L4.439,137.77z M58.66,146.897v-18.28h8.492c1.915,0,3.453,0.531,4.614,1.593c1.16,1.061,1.741,2.439,1.741,4.134
				c0,1.517-0.448,2.742-1.345,3.674c-0.896,0.932-1.986,1.496-3.269,1.693l4.755,7.186h-3.935l-4.26-6.825h-3.396v6.825H58.66
				L58.66,146.897z M62.057,137.248h4.67c0.962,0,1.752-0.27,2.371-0.81c0.618-0.54,0.927-1.247,0.927-2.121
				c0-0.856-0.31-1.55-0.927-2.081c-0.618-0.531-1.408-0.796-2.371-0.796h-4.67V137.248L62.057,137.248z M108.664,137.77
				c0-2.739,0.927-5,2.781-6.785c1.854-1.784,4.223-2.676,7.105-2.676c2.882,0,5.251,0.893,7.105,2.676
				c1.854,1.785,2.781,4.046,2.781,6.785c0,2.739-0.927,5.001-2.781,6.785c-1.854,1.784-4.223,2.677-7.105,2.677
				c-2.883,0-5.251-0.893-7.105-2.677C109.59,142.771,108.664,140.509,108.664,137.77L108.664,137.77z M112.146,137.77
				c0,1.918,0.585,3.5,1.755,4.744c1.17,1.244,2.717,1.867,4.643,1.867c1.915,0,3.462-0.627,4.642-1.88s1.769-2.83,1.769-4.73
				c0-1.918-0.589-3.5-1.769-4.744s-2.727-1.867-4.642-1.867c-1.935,0-3.485,0.622-4.65,1.867S112.146,135.852,112.146,137.77
				L112.146,137.77z M164.271,139.657v-11.041h3.454v10.96c0,1.481,0.425,2.652,1.273,3.513c0.849,0.861,2.066,1.292,3.652,1.292
				s2.802-0.43,3.651-1.292c0.849-0.861,1.273-2.032,1.273-3.513v-10.96h3.454v11.041c0,2.337-0.71,4.184-2.13,5.54
				c-1.42,1.356-3.503,2.034-6.249,2.034c-2.728,0-4.805-0.683-6.234-2.048C164.986,143.819,164.271,141.977,164.271,139.657
				L164.271,139.657z M217.743,146.897v-18.28h8.535c1.953,0,3.489,0.549,4.606,1.646s1.677,2.458,1.677,4.081
				c0,1.606-0.561,2.958-1.685,4.055c-1.122,1.098-2.656,1.646-4.599,1.646h-5.138v6.852H217.743L217.743,146.897z M221.139,137.221
				h4.671c0.962,0,1.748-0.265,2.356-0.796c0.609-0.53,0.913-1.224,0.913-2.081c0-0.874-0.304-1.577-0.913-2.107
				s-1.395-0.796-2.356-0.796h-4.671V137.221L221.139,137.221z"/>
		</defs>
		<clipPath id="SVGID_7_">
			<use xlink:href="#SVGID_5_"  overflow="visible"/>
		</clipPath>
		<clipPath id="SVGID_8_" clip-path="url(#SVGID_7_)">
			<use xlink:href="#SVGID_6_"  overflow="visible"/>
		</clipPath>
		<rect x="0.795" y="124.665" clip-path="url(#SVGID_8_)" fill="#2E2E2C" width="235.409" height="26.238"/>
	</g>
</g>
</svg>
